<mxfile host="app.diagrams.net" modified="2024-02-08T20:38:12.084Z" agent="Mozilla/5.0 (Macintosh; Intel Mac OS X 10_15_7) AppleWebKit/537.36 (KHTML, like Gecko) Chrome/121.0.0.0 Safari/537.36" version="23.1.2" etag="aAAK1IF_TlHyC5lsKiuW" type="github">
  <diagram name="PÃ¡gina-1" id="WkrQPOlEc6ouUDc2bIVv">
    <mxGraphModel>
      <root>
        <mxCell id="0" />
        <mxCell id="1" parent="0" />
      </root>
    </mxGraphModel>
  </diagram>
</mxfile>
